<svg id="bb61ef67-21fe-4a69-b136-2db0549a653f" data-name="587b1568-0e3b-45c7-92fa-a97b92623134" xmlns="http://www.w3.org/2000/svg" viewBox="0 0 40 40"><title>behance-icon</title><path id="62d03da2-3ebe-43f9-bfb6-17cadc91d91d" data-name="81072a88-1166-48ee-a8e1-bbe7d3950829" d="M11.68,6.68A13.9,13.9,0,0,1,14.85,7a6.7,6.7,0,0,1,2.46,1.09,5,5,0,0,1,1.6,2,7.63,7.63,0,0,1,.55,3,6,6,0,0,1-.84,3.31,6.13,6.13,0,0,1-2.48,2.15A5.8,5.8,0,0,1,19.48,21a7.68,7.68,0,0,1,1.1,4.13,7.51,7.51,0,0,1-.71,3.44A6.42,6.42,0,0,1,18,31a8,8,0,0,1-2.77,1.36,11.45,11.45,0,0,1-3.17.43H0.19V6.68H11.68ZM11,17.26a3.69,3.69,0,0,0,2.36-.69,2.88,2.88,0,0,0,.91-2.38,3.22,3.22,0,0,0-.31-1.5,2.24,2.24,0,0,0-.84-1,3.2,3.2,0,0,0-1.17-.47,7.34,7.34,0,0,0-1.38-.12h-5v6.11H11ZM11.29,28.4a6.06,6.06,0,0,0,1.5-.17A3.22,3.22,0,0,0,14,27.68a2.65,2.65,0,0,0,.88-1.05,3.69,3.69,0,0,0,.33-1.72A3.55,3.55,0,0,0,14.18,22a4.32,4.32,0,0,0-2.79-.86H5.55v7.22h5.74v0Zm16.95-.09a4.13,4.13,0,0,0,3.13,1.14,4.06,4.06,0,0,0,2.53-.83,3.27,3.27,0,0,0,1.29-1.72h4.27a7.94,7.94,0,0,1-8.25,6.37,9.51,9.51,0,0,1-3.77-.72,8,8,0,0,1-2.84-2,9.4,9.4,0,0,1-1.72-3.15,12.62,12.62,0,0,1-.71-3.91,11.87,11.87,0,0,1,.65-4,9.59,9.59,0,0,1,1.84-3.17,8.9,8.9,0,0,1,2.86-2.12,8.61,8.61,0,0,1,3.69-.78,7.79,7.79,0,0,1,3.91.95,8,8,0,0,1,2.76,2.5,10.42,10.42,0,0,1,1.55,3.6,14.24,14.24,0,0,1,.34,4.22H27a5.61,5.61,0,0,0,1.19,3.69h0V28.31Zm5.55-10A3.44,3.44,0,0,0,31,17.22a3.7,3.7,0,0,0-3.15,1.48A4.15,4.15,0,0,0,27.22,20,6.15,6.15,0,0,0,27,21.29h7.87a5.17,5.17,0,0,0-1.1-3h0ZM26,8.37V11h9.87V8.37H26Z"/></svg>