<svg id="a5b22692-f7fe-4b4e-86bf-fb8783cafaca" data-name="Layer 1" xmlns="http://www.w3.org/2000/svg" viewBox="0 0 61.98 12.04"><defs><style>.\37 0e51c1d-6b71-4b61-b08b-790d1a39b81a{fill:#262424;}</style></defs><title>behance-logo</title><path class="70e51c1d-6b71-4b61-b08b-790d1a39b81a" d="M5,0C7.31,0,8.62,1.29,8.62,3.14A2.64,2.64,0,0,1,6.89,5.69,2.81,2.81,0,0,1,9,8.51c0,1.93-1.44,3.28-3.68,3.28H0V0H5ZM4.64,4.85a1.49,1.49,0,0,0,1.7-1.49c0-.91-0.59-1.41-1.71-1.41H2.28v2.9H4.64Zm0.24,5a1.52,1.52,0,0,0,1.8-1.5,1.55,1.55,0,0,0-1.76-1.6H2.28V9.85H4.88Z"/><path class="70e51c1d-6b71-4b61-b08b-790d1a39b81a" d="M21.21,11.79H19V0h2.23v4.2a3,3,0,0,1,2.23-.91c2.1,0,3.07,1.46,3.07,3.27v5.2H24.28V7a1.45,1.45,0,0,0-1.53-1.65,1.55,1.55,0,0,0-1.54,1.61v4.85Z"/><path class="70e51c1d-6b71-4b61-b08b-790d1a39b81a" d="M38.58,11.79H36.34V3.52h2.17v1a2.74,2.74,0,0,1,2.38-1.24c2,0,3,1.46,3,3.27v5.2H41.65V7a1.45,1.45,0,0,0-1.53-1.65A1.56,1.56,0,0,0,38.58,7v4.75Z"/><path class="70e51c1d-6b71-4b61-b08b-790d1a39b81a" d="M59.62,9.24a1.76,1.76,0,0,1-1.66.91,1.93,1.93,0,0,1-2-1.9h6S62,8,62,7.71c0-2.57-1.52-4.44-4.19-4.44a4.15,4.15,0,0,0-4.06,4.35A4.15,4.15,0,0,0,57.94,12a3.94,3.94,0,0,0,3.88-2.51c0-.09.06-0.19,0.09-0.29h-2.3ZM57.82,5.09A1.6,1.6,0,0,1,59.6,6.71H56A1.74,1.74,0,0,1,57.82,5.09Z"/><path class="70e51c1d-6b71-4b61-b08b-790d1a39b81a" d="M51.06,8.6h0a1.92,1.92,0,0,1-1.85,1.51,2.23,2.23,0,0,1-2.12-2.45,2.23,2.23,0,0,1,2.1-2.46,1.71,1.71,0,0,1,1.74,1.27h2.14a2.3,2.3,0,0,0,0-.41,3.69,3.69,0,0,0-3.88-2.79,4.23,4.23,0,0,0-4.28,4.38A4.27,4.27,0,0,0,49.21,12a3.84,3.84,0,0,0,3.86-2.79c0.06-.21.1-0.44,0.14-0.65H51.06Z"/><path class="70e51c1d-6b71-4b61-b08b-790d1a39b81a" d="M30,7l2.29-.3a0.64,0.64,0,0,0,.62-0.66A1.27,1.27,0,0,0,31.45,5a1.38,1.38,0,0,0-1.56,1.17H27.7V6c0.13-1.29,1.24-2.72,3.73-2.72S35.1,4.68,35.1,6.34v4.13a2.68,2.68,0,0,0,.27,1.31H33.25a2.8,2.8,0,0,1-.18-1A3.28,3.28,0,0,1,30.38,12a2.61,2.61,0,0,1-2.84-2.48C27.54,8,28.63,7.24,30,7Zm2.91,1.41V8a1.47,1.47,0,0,1-.74.23l-1.39.17a1,1,0,0,0-1,1,1,1,0,0,0,1.07,1A1.87,1.87,0,0,0,32.92,8.44Z"/><rect class="70e51c1d-6b71-4b61-b08b-790d1a39b81a" x="10.99" y="0.69" width="5.73" height="1.41"/><path class="70e51c1d-6b71-4b61-b08b-790d1a39b81a" d="M15.64,9.24a1.76,1.76,0,0,1-1.66.91,1.93,1.93,0,0,1-2-1.9h6S18,8,18,7.71c0-2.57-1.52-4.44-4.19-4.44A4.15,4.15,0,0,0,9.74,7.62,4.15,4.15,0,0,0,14,12a3.94,3.94,0,0,0,3.88-2.51c0-.09.06-0.19,0.09-0.29h-2.3ZM13.84,5.09a1.6,1.6,0,0,1,1.78,1.63H12A1.74,1.74,0,0,1,13.84,5.09Z"/></svg>