<svg id="d96630a1-15d6-4544-855d-e6c72904cf66" data-name="60c8da67-0316-419f-a9aa-8b944d373708" xmlns="http://www.w3.org/2000/svg" viewBox="0 0 40 40"><title>facebook-icon</title><path id="d8ece10d-fb64-43f5-a591-b15ea6d3413b" data-name="c72a66ee-41a2-47d8-836c-2cb834d5972d" d="M37.74,0H2.26A2.28,2.28,0,0,0,0,2.28H0V37.75A2.28,2.28,0,0,0,2.26,40H21.35V24.55H16.14V18.47h5.21V14a7.24,7.24,0,0,1,7.79-7.95,42.56,42.56,0,0,1,4.57.21v5.39H30.5a2.51,2.51,0,0,0-3,2.95v3.86h6l-0.73,6.07H27.58V40H37.74A2.28,2.28,0,0,0,40,37.75h0V2.22A2.28,2.28,0,0,0,37.74,0Z"/></svg>