<svg id="10e1af3c-4b49-4366-975f-a78143b4dc15" data-name="60c8da67-0316-419f-a9aa-8b944d373708" xmlns="http://www.w3.org/2000/svg" viewBox="0 0 40 40"><title>facebook-icon-01</title><path id="8ed7af0a-e3d8-4f64-96bd-c73215e0a016" data-name="c72a66ee-41a2-47d8-836c-2cb834d5972d" d="M27.1,5.64H1.64A1.64,1.64,0,0,0,0,7.28H0V32.72a1.64,1.64,0,0,0,1.64,1.64h13.7V23.25H11.6V18.89h3.74V15.7A5.19,5.19,0,0,1,20.92,10a30.54,30.54,0,0,1,3.28.15V14H21.91a1.8,1.8,0,0,0-2.13,2.11v2.77h4.28l-0.52,4.36H19.81V34.36H27.1a1.64,1.64,0,0,0,1.64-1.64h0V7.23A1.64,1.64,0,0,0,27.1,5.64Z"/></svg>